<mxfile host="Electron" agent="Mozilla/5.0 (Macintosh; Intel Mac OS X 10_15_7) AppleWebKit/537.36 (KHTML, like Gecko) draw.io/24.7.8 Chrome/128.0.6613.36 Electron/32.0.1 Safari/537.36" version="24.7.8">
  <diagram name="Page-1" id="ShpDgmXpsZrJdnOwRW5m">
    <mxGraphModel dx="2924" dy="1146" grid="1" gridSize="10" guides="1" tooltips="1" connect="1" arrows="1" fold="1" page="1" pageScale="1" pageWidth="850" pageHeight="1100" math="0" shadow="0">
      <root>
        <mxCell id="0" />
        <mxCell id="1" parent="0" />
        <mxCell id="csXmqMj6bJsYxj3TkgzI-4" value="" style="fillColor=none;strokeColor=#5A6C86;dashed=1;verticalAlign=top;fontStyle=0;fontColor=#5A6C86;whiteSpace=wrap;html=1;" parent="1" vertex="1">
          <mxGeometry x="605.5" y="900" width="349.5" height="240" as="geometry" />
        </mxCell>
        <mxCell id="ECxJCnwDTBym_X6aiwxF-4" value="AWS Cloud" style="points=[[0,0],[0.25,0],[0.5,0],[0.75,0],[1,0],[1,0.25],[1,0.5],[1,0.75],[1,1],[0.75,1],[0.5,1],[0.25,1],[0,1],[0,0.75],[0,0.5],[0,0.25]];outlineConnect=0;gradientColor=none;html=1;whiteSpace=wrap;fontSize=12;fontStyle=0;container=1;pointerEvents=0;collapsible=0;recursiveResize=0;shape=mxgraph.aws4.group;grIcon=mxgraph.aws4.group_aws_cloud;strokeColor=#232F3E;fillColor=none;verticalAlign=top;align=left;spacingLeft=30;fontColor=#232F3E;dashed=0;" parent="1" vertex="1">
          <mxGeometry x="140" y="110" width="990" height="1220" as="geometry" />
        </mxCell>
        <mxCell id="ECxJCnwDTBym_X6aiwxF-5" value="Region" style="points=[[0,0],[0.25,0],[0.5,0],[0.75,0],[1,0],[1,0.25],[1,0.5],[1,0.75],[1,1],[0.75,1],[0.5,1],[0.25,1],[0,1],[0,0.75],[0,0.5],[0,0.25]];outlineConnect=0;gradientColor=none;html=1;whiteSpace=wrap;fontSize=12;fontStyle=0;container=1;pointerEvents=0;collapsible=0;recursiveResize=0;shape=mxgraph.aws4.group;grIcon=mxgraph.aws4.group_region;strokeColor=#00A4A6;fillColor=none;verticalAlign=top;align=left;spacingLeft=30;fontColor=#147EBA;dashed=1;" parent="ECxJCnwDTBym_X6aiwxF-4" vertex="1">
          <mxGeometry x="30" y="40" width="927.5" height="1150" as="geometry" />
        </mxCell>
        <mxCell id="ECxJCnwDTBym_X6aiwxF-6" value="VPC" style="points=[[0,0],[0.25,0],[0.5,0],[0.75,0],[1,0],[1,0.25],[1,0.5],[1,0.75],[1,1],[0.75,1],[0.5,1],[0.25,1],[0,1],[0,0.75],[0,0.5],[0,0.25]];outlineConnect=0;gradientColor=none;html=1;whiteSpace=wrap;fontSize=12;fontStyle=0;container=1;pointerEvents=0;collapsible=0;recursiveResize=0;shape=mxgraph.aws4.group;grIcon=mxgraph.aws4.group_vpc2;strokeColor=#8C4FFF;fillColor=none;verticalAlign=top;align=left;spacingLeft=30;fontColor=#AAB7B8;dashed=0;" parent="ECxJCnwDTBym_X6aiwxF-5" vertex="1">
          <mxGeometry x="30" y="40" width="810" height="610" as="geometry" />
        </mxCell>
        <mxCell id="ECxJCnwDTBym_X6aiwxF-7" value="Availability Zone" style="fillColor=none;strokeColor=#147EBA;dashed=1;verticalAlign=top;fontStyle=0;fontColor=#147EBA;whiteSpace=wrap;html=1;" parent="ECxJCnwDTBym_X6aiwxF-6" vertex="1">
          <mxGeometry x="180" y="90" width="260" height="340" as="geometry" />
        </mxCell>
        <mxCell id="ECxJCnwDTBym_X6aiwxF-8" value="Availability Zone" style="fillColor=none;strokeColor=#147EBA;dashed=1;verticalAlign=top;fontStyle=0;fontColor=#147EBA;whiteSpace=wrap;html=1;" parent="ECxJCnwDTBym_X6aiwxF-6" vertex="1">
          <mxGeometry x="480" y="90" width="260" height="340" as="geometry" />
        </mxCell>
        <mxCell id="ECxJCnwDTBym_X6aiwxF-16" value="Public subnet" style="points=[[0,0],[0.25,0],[0.5,0],[0.75,0],[1,0],[1,0.25],[1,0.5],[1,0.75],[1,1],[0.75,1],[0.5,1],[0.25,1],[0,1],[0,0.75],[0,0.5],[0,0.25]];outlineConnect=0;gradientColor=none;html=1;whiteSpace=wrap;fontSize=12;fontStyle=0;container=1;pointerEvents=0;collapsible=0;recursiveResize=0;shape=mxgraph.aws4.group;grIcon=mxgraph.aws4.group_security_group;grStroke=0;strokeColor=#7AA116;fillColor=#F2F6E8;verticalAlign=top;align=left;spacingLeft=30;fontColor=#248814;dashed=0;" parent="ECxJCnwDTBym_X6aiwxF-6" vertex="1">
          <mxGeometry x="545" y="130" width="130" height="130" as="geometry" />
        </mxCell>
        <mxCell id="ECxJCnwDTBym_X6aiwxF-15" value="Public subnet" style="points=[[0,0],[0.25,0],[0.5,0],[0.75,0],[1,0],[1,0.25],[1,0.5],[1,0.75],[1,1],[0.75,1],[0.5,1],[0.25,1],[0,1],[0,0.75],[0,0.5],[0,0.25]];outlineConnect=0;gradientColor=none;html=1;whiteSpace=wrap;fontSize=12;fontStyle=0;container=1;pointerEvents=0;collapsible=0;recursiveResize=0;shape=mxgraph.aws4.group;grIcon=mxgraph.aws4.group_security_group;grStroke=0;strokeColor=#7AA116;fillColor=#F2F6E8;verticalAlign=top;align=left;spacingLeft=30;fontColor=#248814;dashed=0;" parent="ECxJCnwDTBym_X6aiwxF-6" vertex="1">
          <mxGeometry x="245" y="130" width="130" height="130" as="geometry" />
        </mxCell>
        <mxCell id="ECxJCnwDTBym_X6aiwxF-27" value="NAT gateway" style="sketch=0;outlineConnect=0;fontColor=#232F3E;gradientColor=none;strokeColor=#232F3E;fillColor=#ffffff;dashed=0;verticalLabelPosition=bottom;verticalAlign=top;align=center;html=1;fontSize=12;fontStyle=0;aspect=fixed;shape=mxgraph.aws4.resourceIcon;resIcon=mxgraph.aws4.nat_gateway;" parent="ECxJCnwDTBym_X6aiwxF-15" vertex="1">
          <mxGeometry x="27.5" y="35" width="60" height="60" as="geometry" />
        </mxCell>
        <mxCell id="ECxJCnwDTBym_X6aiwxF-12" value="Private subnet" style="points=[[0,0],[0.25,0],[0.5,0],[0.75,0],[1,0],[1,0.25],[1,0.5],[1,0.75],[1,1],[0.75,1],[0.5,1],[0.25,1],[0,1],[0,0.75],[0,0.5],[0,0.25]];outlineConnect=0;gradientColor=none;html=1;whiteSpace=wrap;fontSize=12;fontStyle=0;container=1;pointerEvents=0;collapsible=0;recursiveResize=0;shape=mxgraph.aws4.group;grIcon=mxgraph.aws4.group_security_group;grStroke=0;strokeColor=#00A4A6;fillColor=#E6F6F7;verticalAlign=top;align=left;spacingLeft=30;fontColor=#147EBA;dashed=0;" parent="ECxJCnwDTBym_X6aiwxF-6" vertex="1">
          <mxGeometry x="550" y="270" width="130" height="130" as="geometry" />
        </mxCell>
        <mxCell id="ECxJCnwDTBym_X6aiwxF-18" value="" style="outlineConnect=0;dashed=0;verticalLabelPosition=bottom;verticalAlign=top;align=center;html=1;shape=mxgraph.aws3.ec2;fillColor=#F58534;gradientColor=none;" parent="ECxJCnwDTBym_X6aiwxF-12" vertex="1">
          <mxGeometry x="37.5" y="37" width="45" height="63" as="geometry" />
        </mxCell>
        <mxCell id="ECxJCnwDTBym_X6aiwxF-9" value="Private subnet" style="points=[[0,0],[0.25,0],[0.5,0],[0.75,0],[1,0],[1,0.25],[1,0.5],[1,0.75],[1,1],[0.75,1],[0.5,1],[0.25,1],[0,1],[0,0.75],[0,0.5],[0,0.25]];outlineConnect=0;gradientColor=none;html=1;whiteSpace=wrap;fontSize=12;fontStyle=0;container=1;pointerEvents=0;collapsible=0;recursiveResize=0;shape=mxgraph.aws4.group;grIcon=mxgraph.aws4.group_security_group;grStroke=0;strokeColor=#00A4A6;fillColor=#E6F6F7;verticalAlign=top;align=left;spacingLeft=30;fontColor=#147EBA;dashed=0;" parent="ECxJCnwDTBym_X6aiwxF-6" vertex="1">
          <mxGeometry x="245" y="269" width="145" height="150" as="geometry" />
        </mxCell>
        <mxCell id="ECxJCnwDTBym_X6aiwxF-17" value="" style="outlineConnect=0;dashed=0;verticalLabelPosition=bottom;verticalAlign=top;align=center;html=1;shape=mxgraph.aws3.ec2;fillColor=#F58534;gradientColor=none;" parent="ECxJCnwDTBym_X6aiwxF-9" vertex="1">
          <mxGeometry x="35" y="37" width="45" height="63" as="geometry" />
        </mxCell>
        <mxCell id="rbHwA2GX-fExe7EiFknA-4" style="edgeStyle=orthogonalEdgeStyle;rounded=0;orthogonalLoop=1;jettySize=auto;html=1;" parent="ECxJCnwDTBym_X6aiwxF-6" source="ECxJCnwDTBym_X6aiwxF-19" target="rbHwA2GX-fExe7EiFknA-1" edge="1">
          <mxGeometry relative="1" as="geometry" />
        </mxCell>
        <mxCell id="ECxJCnwDTBym_X6aiwxF-19" value="Route table" style="sketch=0;outlineConnect=0;fontColor=#232F3E;gradientColor=none;strokeColor=#232F3E;fillColor=#ffffff;dashed=0;verticalLabelPosition=bottom;verticalAlign=top;align=center;html=1;fontSize=12;fontStyle=0;aspect=fixed;shape=mxgraph.aws4.resourceIcon;resIcon=mxgraph.aws4.route_table;" parent="ECxJCnwDTBym_X6aiwxF-6" vertex="1">
          <mxGeometry x="180" y="170" width="60" height="60" as="geometry" />
        </mxCell>
        <mxCell id="rbHwA2GX-fExe7EiFknA-6" style="edgeStyle=orthogonalEdgeStyle;rounded=0;orthogonalLoop=1;jettySize=auto;html=1;" parent="ECxJCnwDTBym_X6aiwxF-6" source="ECxJCnwDTBym_X6aiwxF-20" target="ECxJCnwDTBym_X6aiwxF-27" edge="1">
          <mxGeometry relative="1" as="geometry">
            <Array as="points">
              <mxPoint x="215" y="280" />
              <mxPoint x="240" y="280" />
              <mxPoint x="240" y="195" />
            </Array>
          </mxGeometry>
        </mxCell>
        <mxCell id="ECxJCnwDTBym_X6aiwxF-20" value="Route table" style="sketch=0;outlineConnect=0;fontColor=#232F3E;gradientColor=none;strokeColor=#232F3E;fillColor=#ffffff;dashed=0;verticalLabelPosition=bottom;verticalAlign=top;align=center;html=1;fontSize=12;fontStyle=0;aspect=fixed;shape=mxgraph.aws4.resourceIcon;resIcon=mxgraph.aws4.route_table;" parent="ECxJCnwDTBym_X6aiwxF-6" vertex="1">
          <mxGeometry x="185" y="290" width="60" height="60" as="geometry" />
        </mxCell>
        <mxCell id="ECxJCnwDTBym_X6aiwxF-21" value="Route table" style="sketch=0;outlineConnect=0;fontColor=#232F3E;gradientColor=none;strokeColor=#232F3E;fillColor=#ffffff;dashed=0;verticalLabelPosition=bottom;verticalAlign=top;align=center;html=1;fontSize=12;fontStyle=0;aspect=fixed;shape=mxgraph.aws4.resourceIcon;resIcon=mxgraph.aws4.route_table;" parent="ECxJCnwDTBym_X6aiwxF-6" vertex="1">
          <mxGeometry x="490" y="300" width="60" height="60" as="geometry" />
        </mxCell>
        <mxCell id="rbHwA2GX-fExe7EiFknA-5" style="edgeStyle=orthogonalEdgeStyle;rounded=0;orthogonalLoop=1;jettySize=auto;html=1;" parent="ECxJCnwDTBym_X6aiwxF-6" source="ECxJCnwDTBym_X6aiwxF-22" target="rbHwA2GX-fExe7EiFknA-1" edge="1">
          <mxGeometry relative="1" as="geometry">
            <Array as="points">
              <mxPoint x="515" y="60" />
              <mxPoint x="90" y="60" />
            </Array>
          </mxGeometry>
        </mxCell>
        <mxCell id="ECxJCnwDTBym_X6aiwxF-22" value="Route table" style="sketch=0;outlineConnect=0;fontColor=#232F3E;gradientColor=none;strokeColor=#232F3E;fillColor=#ffffff;dashed=0;verticalLabelPosition=bottom;verticalAlign=top;align=center;html=1;fontSize=12;fontStyle=0;aspect=fixed;shape=mxgraph.aws4.resourceIcon;resIcon=mxgraph.aws4.route_table;" parent="ECxJCnwDTBym_X6aiwxF-6" vertex="1">
          <mxGeometry x="485" y="165" width="60" height="60" as="geometry" />
        </mxCell>
        <mxCell id="ECxJCnwDTBym_X6aiwxF-25" value="Auto Scaling group" style="points=[[0,0],[0.25,0],[0.5,0],[0.75,0],[1,0],[1,0.25],[1,0.5],[1,0.75],[1,1],[0.75,1],[0.5,1],[0.25,1],[0,1],[0,0.75],[0,0.5],[0,0.25]];outlineConnect=0;gradientColor=none;html=1;whiteSpace=wrap;fontSize=12;fontStyle=0;container=1;pointerEvents=0;collapsible=0;recursiveResize=0;shape=mxgraph.aws4.groupCenter;grIcon=mxgraph.aws4.group_auto_scaling_group;grStroke=1;strokeColor=#D86613;fillColor=none;verticalAlign=top;align=center;fontColor=#D86613;dashed=1;spacingTop=25;" parent="ECxJCnwDTBym_X6aiwxF-6" vertex="1">
          <mxGeometry x="160" y="260" width="590" height="165" as="geometry" />
        </mxCell>
        <mxCell id="ECxJCnwDTBym_X6aiwxF-35" value="Security group" style="fillColor=none;strokeColor=#DD3522;verticalAlign=top;fontStyle=0;fontColor=#DD3522;whiteSpace=wrap;html=1;" parent="ECxJCnwDTBym_X6aiwxF-25" vertex="1">
          <mxGeometry x="100" y="47.5" width="380" height="70" as="geometry" />
        </mxCell>
        <mxCell id="csXmqMj6bJsYxj3TkgzI-47" value="IAM Role" style="sketch=0;outlineConnect=0;fontColor=#232F3E;gradientColor=none;fillColor=#DD344C;strokeColor=none;dashed=0;verticalLabelPosition=bottom;verticalAlign=top;align=center;html=1;fontSize=12;fontStyle=0;aspect=fixed;pointerEvents=1;shape=mxgraph.aws4.role;" parent="ECxJCnwDTBym_X6aiwxF-25" vertex="1">
          <mxGeometry x="492" y="77" width="31.91" height="18" as="geometry" />
        </mxCell>
        <mxCell id="ECxJCnwDTBym_X6aiwxF-31" value="" style="sketch=0;outlineConnect=0;fontColor=#232F3E;gradientColor=none;fillColor=#8C4FFF;strokeColor=none;dashed=0;verticalLabelPosition=bottom;verticalAlign=top;align=center;html=1;fontSize=12;fontStyle=0;aspect=fixed;pointerEvents=1;shape=mxgraph.aws4.application_load_balancer;" parent="ECxJCnwDTBym_X6aiwxF-6" vertex="1">
          <mxGeometry x="407" y="490" width="78" height="78" as="geometry" />
        </mxCell>
        <mxCell id="ECxJCnwDTBym_X6aiwxF-32" value="Security group" style="fillColor=none;strokeColor=#DD3522;verticalAlign=top;fontStyle=0;fontColor=#DD3522;whiteSpace=wrap;html=1;" parent="ECxJCnwDTBym_X6aiwxF-6" vertex="1">
          <mxGeometry x="395" y="470" width="110" height="98" as="geometry" />
        </mxCell>
        <mxCell id="ECxJCnwDTBym_X6aiwxF-44" style="edgeStyle=orthogonalEdgeStyle;rounded=0;orthogonalLoop=1;jettySize=auto;html=1;exitX=0.5;exitY=0;exitDx=0;exitDy=0;entryX=0.5;entryY=1;entryDx=0;entryDy=0;" parent="ECxJCnwDTBym_X6aiwxF-6" source="ECxJCnwDTBym_X6aiwxF-32" target="ECxJCnwDTBym_X6aiwxF-35" edge="1">
          <mxGeometry relative="1" as="geometry" />
        </mxCell>
        <mxCell id="rbHwA2GX-fExe7EiFknA-1" value="Router" style="sketch=0;outlineConnect=0;fontColor=#232F3E;gradientColor=none;fillColor=#8C4FFF;strokeColor=none;dashed=0;verticalLabelPosition=bottom;verticalAlign=top;align=center;html=1;fontSize=12;fontStyle=0;aspect=fixed;pointerEvents=1;shape=mxgraph.aws4.customer_gateway;" parent="ECxJCnwDTBym_X6aiwxF-6" vertex="1">
          <mxGeometry x="70" y="160" width="40" height="40" as="geometry" />
        </mxCell>
        <mxCell id="rbHwA2GX-fExe7EiFknA-7" style="edgeStyle=orthogonalEdgeStyle;rounded=0;orthogonalLoop=1;jettySize=auto;html=1;" parent="ECxJCnwDTBym_X6aiwxF-6" source="ECxJCnwDTBym_X6aiwxF-27" target="rbHwA2GX-fExe7EiFknA-1" edge="1">
          <mxGeometry relative="1" as="geometry">
            <Array as="points">
              <mxPoint x="303" y="120" />
              <mxPoint x="90" y="120" />
            </Array>
          </mxGeometry>
        </mxCell>
        <mxCell id="csXmqMj6bJsYxj3TkgzI-33" value="Application Load Balancer" style="text;html=1;align=center;verticalAlign=middle;whiteSpace=wrap;rounded=0;" parent="ECxJCnwDTBym_X6aiwxF-6" vertex="1">
          <mxGeometry x="405" y="568" width="85" height="30" as="geometry" />
        </mxCell>
        <mxCell id="ECxJCnwDTBym_X6aiwxF-26" value="Internet&#xa;gateway" style="sketch=0;outlineConnect=0;fontColor=#232F3E;gradientColor=none;strokeColor=#232F3E;fillColor=#ffffff;dashed=0;verticalLabelPosition=bottom;verticalAlign=top;align=center;html=1;fontSize=12;fontStyle=0;aspect=fixed;shape=mxgraph.aws4.resourceIcon;resIcon=mxgraph.aws4.internet_gateway;" parent="ECxJCnwDTBym_X6aiwxF-5" vertex="1">
          <mxGeometry x="-10" y="190" width="60" height="60" as="geometry" />
        </mxCell>
        <mxCell id="ECxJCnwDTBym_X6aiwxF-33" style="edgeStyle=orthogonalEdgeStyle;rounded=0;orthogonalLoop=1;jettySize=auto;html=1;startArrow=openThin;startFill=0;" parent="ECxJCnwDTBym_X6aiwxF-5" source="ECxJCnwDTBym_X6aiwxF-32" target="ECxJCnwDTBym_X6aiwxF-26" edge="1">
          <mxGeometry relative="1" as="geometry" />
        </mxCell>
        <mxCell id="ECxJCnwDTBym_X6aiwxF-45" style="edgeStyle=orthogonalEdgeStyle;rounded=0;orthogonalLoop=1;jettySize=auto;html=1;entryX=1;entryY=0.75;entryDx=0;entryDy=0;endArrow=none;endFill=0;startArrow=classic;startFill=1;" parent="ECxJCnwDTBym_X6aiwxF-5" source="csXmqMj6bJsYxj3TkgzI-35" target="ECxJCnwDTBym_X6aiwxF-35" edge="1">
          <mxGeometry relative="1" as="geometry">
            <mxPoint x="864.3792563870406" y="399.79999999999995" as="sourcePoint" />
          </mxGeometry>
        </mxCell>
        <mxCell id="rbHwA2GX-fExe7EiFknA-2" style="edgeStyle=orthogonalEdgeStyle;rounded=0;orthogonalLoop=1;jettySize=auto;html=1;" parent="ECxJCnwDTBym_X6aiwxF-5" source="rbHwA2GX-fExe7EiFknA-1" target="ECxJCnwDTBym_X6aiwxF-26" edge="1">
          <mxGeometry relative="1" as="geometry" />
        </mxCell>
        <mxCell id="csXmqMj6bJsYxj3TkgzI-35" value="S3 Bucket" style="sketch=0;outlineConnect=0;fontColor=#232F3E;gradientColor=none;fillColor=#7AA116;strokeColor=none;dashed=0;verticalLabelPosition=bottom;verticalAlign=top;align=center;html=1;fontSize=12;fontStyle=0;aspect=fixed;pointerEvents=1;shape=mxgraph.aws4.bucket;" parent="ECxJCnwDTBym_X6aiwxF-5" vertex="1">
          <mxGeometry x="852.5" y="210" width="75" height="78" as="geometry" />
        </mxCell>
        <mxCell id="csXmqMj6bJsYxj3TkgzI-23" value="CloudFront" style="sketch=0;points=[[0,0,0],[0.25,0,0],[0.5,0,0],[0.75,0,0],[1,0,0],[0,1,0],[0.25,1,0],[0.5,1,0],[0.75,1,0],[1,1,0],[0,0.25,0],[0,0.5,0],[0,0.75,0],[1,0.25,0],[1,0.5,0],[1,0.75,0]];outlineConnect=0;fontColor=#232F3E;fillColor=#8C4FFF;strokeColor=#ffffff;dashed=0;verticalLabelPosition=bottom;verticalAlign=top;align=center;html=1;fontSize=12;fontStyle=0;aspect=fixed;shape=mxgraph.aws4.resourceIcon;resIcon=mxgraph.aws4.cloudfront;" parent="ECxJCnwDTBym_X6aiwxF-4" vertex="1">
          <mxGeometry x="18.689999999999998" y="720" width="58" height="58" as="geometry" />
        </mxCell>
        <mxCell id="csXmqMj6bJsYxj3TkgzI-32" style="edgeStyle=orthogonalEdgeStyle;rounded=0;orthogonalLoop=1;jettySize=auto;html=1;entryX=0;entryY=0.75;entryDx=0;entryDy=0;" parent="ECxJCnwDTBym_X6aiwxF-4" source="csXmqMj6bJsYxj3TkgzI-23" target="ECxJCnwDTBym_X6aiwxF-32" edge="1">
          <mxGeometry relative="1" as="geometry">
            <mxPoint x="260" y="770" as="targetPoint" />
          </mxGeometry>
        </mxCell>
        <mxCell id="csXmqMj6bJsYxj3TkgzI-34" value="/api/*" style="edgeLabel;html=1;align=center;verticalAlign=middle;resizable=0;points=[];" parent="csXmqMj6bJsYxj3TkgzI-32" vertex="1" connectable="0">
          <mxGeometry x="-0.452" y="2" relative="1" as="geometry">
            <mxPoint as="offset" />
          </mxGeometry>
        </mxCell>
        <mxCell id="csXmqMj6bJsYxj3TkgzI-24" value="S3 Bucket" style="sketch=0;outlineConnect=0;fontColor=#232F3E;gradientColor=none;fillColor=#7AA116;strokeColor=none;dashed=0;verticalLabelPosition=bottom;verticalAlign=top;align=center;html=1;fontSize=12;fontStyle=0;aspect=fixed;pointerEvents=1;shape=mxgraph.aws4.bucket;" parent="ECxJCnwDTBym_X6aiwxF-4" vertex="1">
          <mxGeometry x="28.460000000000008" y="880" width="38.46" height="40" as="geometry" />
        </mxCell>
        <mxCell id="csXmqMj6bJsYxj3TkgzI-26" style="edgeStyle=orthogonalEdgeStyle;rounded=0;orthogonalLoop=1;jettySize=auto;html=1;" parent="ECxJCnwDTBym_X6aiwxF-4" source="csXmqMj6bJsYxj3TkgzI-49" target="csXmqMj6bJsYxj3TkgzI-24" edge="1">
          <mxGeometry relative="1" as="geometry" />
        </mxCell>
        <mxCell id="csXmqMj6bJsYxj3TkgzI-27" value="Serve FrontEnd" style="edgeLabel;html=1;align=center;verticalAlign=middle;resizable=0;points=[];" parent="csXmqMj6bJsYxj3TkgzI-26" vertex="1" connectable="0">
          <mxGeometry x="0.1404" y="3" relative="1" as="geometry">
            <mxPoint x="-2" y="-3" as="offset" />
          </mxGeometry>
        </mxCell>
        <mxCell id="csXmqMj6bJsYxj3TkgzI-49" value="IAM Role" style="sketch=0;outlineConnect=0;fontColor=#232F3E;gradientColor=none;fillColor=#DD344C;strokeColor=none;dashed=0;verticalLabelPosition=bottom;verticalAlign=top;align=center;html=1;fontSize=12;fontStyle=0;aspect=fixed;pointerEvents=1;shape=mxgraph.aws4.role;" parent="ECxJCnwDTBym_X6aiwxF-4" vertex="1">
          <mxGeometry x="28.459999999999923" y="799" width="31.91" height="18" as="geometry" />
        </mxCell>
        <mxCell id="KKzagYRV8gc3cRir5NFJ-1" value="" style="edgeStyle=orthogonalEdgeStyle;rounded=0;orthogonalLoop=1;jettySize=auto;html=1;" parent="ECxJCnwDTBym_X6aiwxF-4" source="csXmqMj6bJsYxj3TkgzI-23" target="csXmqMj6bJsYxj3TkgzI-49" edge="1">
          <mxGeometry relative="1" as="geometry">
            <mxPoint x="188" y="888" as="sourcePoint" />
            <mxPoint x="188" y="990" as="targetPoint" />
          </mxGeometry>
        </mxCell>
        <mxCell id="ECxJCnwDTBym_X6aiwxF-36" value="" style="outlineConnect=0;dashed=0;verticalLabelPosition=bottom;verticalAlign=top;align=center;html=1;shape=mxgraph.aws3.internet_2;fillColor=#D2D3D3;gradientColor=none;" parent="1" vertex="1">
          <mxGeometry x="30" y="343" width="79.5" height="54" as="geometry" />
        </mxCell>
        <mxCell id="ECxJCnwDTBym_X6aiwxF-37" style="edgeStyle=orthogonalEdgeStyle;rounded=0;orthogonalLoop=1;jettySize=auto;html=1;" parent="1" source="ECxJCnwDTBym_X6aiwxF-26" target="ECxJCnwDTBym_X6aiwxF-36" edge="1">
          <mxGeometry relative="1" as="geometry" />
        </mxCell>
        <mxCell id="csXmqMj6bJsYxj3TkgzI-8" style="edgeStyle=orthogonalEdgeStyle;rounded=0;orthogonalLoop=1;jettySize=auto;html=1;" parent="1" source="csXmqMj6bJsYxj3TkgzI-1" target="csXmqMj6bJsYxj3TkgzI-5" edge="1">
          <mxGeometry relative="1" as="geometry">
            <Array as="points">
              <mxPoint x="765" y="1039" />
            </Array>
          </mxGeometry>
        </mxCell>
        <mxCell id="csXmqMj6bJsYxj3TkgzI-15" style="edgeStyle=orthogonalEdgeStyle;rounded=0;orthogonalLoop=1;jettySize=auto;html=1;" parent="1" source="csXmqMj6bJsYxj3TkgzI-1" target="csXmqMj6bJsYxj3TkgzI-14" edge="1">
          <mxGeometry relative="1" as="geometry" />
        </mxCell>
        <mxCell id="csXmqMj6bJsYxj3TkgzI-16" value="Push Docker images" style="edgeLabel;html=1;align=center;verticalAlign=middle;resizable=0;points=[];" parent="csXmqMj6bJsYxj3TkgzI-15" vertex="1" connectable="0">
          <mxGeometry x="-0.1712" y="3" relative="1" as="geometry">
            <mxPoint as="offset" />
          </mxGeometry>
        </mxCell>
        <mxCell id="csXmqMj6bJsYxj3TkgzI-1" value="CodeBuild" style="sketch=0;points=[[0,0,0],[0.25,0,0],[0.5,0,0],[0.75,0,0],[1,0,0],[0,1,0],[0.25,1,0],[0.5,1,0],[0.75,1,0],[1,1,0],[0,0.25,0],[0,0.5,0],[0,0.75,0],[1,0.25,0],[1,0.5,0],[1,0.75,0]];outlineConnect=0;fontColor=#232F3E;fillColor=#C925D1;strokeColor=#ffffff;dashed=0;verticalLabelPosition=bottom;verticalAlign=top;align=center;html=1;fontSize=12;fontStyle=0;aspect=fixed;shape=mxgraph.aws4.resourceIcon;resIcon=mxgraph.aws4.codebuild;" parent="1" vertex="1">
          <mxGeometry x="675" y="980" width="78" height="78" as="geometry" />
        </mxCell>
        <mxCell id="csXmqMj6bJsYxj3TkgzI-7" style="edgeStyle=orthogonalEdgeStyle;rounded=0;orthogonalLoop=1;jettySize=auto;html=1;endArrow=none;endFill=0;startArrow=classic;startFill=1;" parent="1" source="csXmqMj6bJsYxj3TkgzI-2" target="csXmqMj6bJsYxj3TkgzI-5" edge="1">
          <mxGeometry relative="1" as="geometry">
            <Array as="points">
              <mxPoint x="775" y="1039" />
            </Array>
          </mxGeometry>
        </mxCell>
        <mxCell id="csXmqMj6bJsYxj3TkgzI-2" value="CodeDeploy" style="sketch=0;points=[[0,0,0],[0.25,0,0],[0.5,0,0],[0.75,0,0],[1,0,0],[0,1,0],[0.25,1,0],[0.5,1,0],[0.75,1,0],[1,1,0],[0,0.25,0],[0,0.5,0],[0,0.75,0],[1,0.25,0],[1,0.5,0],[1,0.75,0]];outlineConnect=0;fontColor=#232F3E;fillColor=#C925D1;strokeColor=#ffffff;dashed=0;verticalLabelPosition=bottom;verticalAlign=top;align=center;html=1;fontSize=12;fontStyle=0;aspect=fixed;shape=mxgraph.aws4.resourceIcon;resIcon=mxgraph.aws4.codedeploy;" parent="1" vertex="1">
          <mxGeometry x="795" y="980" width="78" height="78" as="geometry" />
        </mxCell>
        <mxCell id="csXmqMj6bJsYxj3TkgzI-3" value="CodePipeline" style="sketch=0;points=[[0,0,0],[0.25,0,0],[0.5,0,0],[0.75,0,0],[1,0,0],[0,1,0],[0.25,1,0],[0.5,1,0],[0.75,1,0],[1,1,0],[0,0.25,0],[0,0.5,0],[0,0.75,0],[1,0.25,0],[1,0.5,0],[1,0.75,0]];outlineConnect=0;fontColor=#232F3E;fillColor=#C925D1;strokeColor=#ffffff;dashed=0;verticalLabelPosition=bottom;verticalAlign=top;align=center;html=1;fontSize=12;fontStyle=0;aspect=fixed;shape=mxgraph.aws4.resourceIcon;resIcon=mxgraph.aws4.codepipeline;" parent="1" vertex="1">
          <mxGeometry x="585" y="880" width="60" height="60" as="geometry" />
        </mxCell>
        <mxCell id="csXmqMj6bJsYxj3TkgzI-5" value="S3 Bucket" style="sketch=0;outlineConnect=0;fontColor=#232F3E;gradientColor=none;fillColor=#7AA116;strokeColor=none;dashed=0;verticalLabelPosition=bottom;verticalAlign=top;align=center;html=1;fontSize=12;fontStyle=0;aspect=fixed;pointerEvents=1;shape=mxgraph.aws4.bucket;" parent="1" vertex="1">
          <mxGeometry x="735" y="1180" width="75" height="78" as="geometry" />
        </mxCell>
        <mxCell id="csXmqMj6bJsYxj3TkgzI-9" value="" style="dashed=0;outlineConnect=0;html=1;align=center;labelPosition=center;verticalLabelPosition=bottom;verticalAlign=top;shape=mxgraph.weblogos.github" parent="1" vertex="1">
          <mxGeometry x="25" y="1070" width="75" height="75" as="geometry" />
        </mxCell>
        <mxCell id="csXmqMj6bJsYxj3TkgzI-10" style="edgeStyle=orthogonalEdgeStyle;rounded=0;orthogonalLoop=1;jettySize=auto;html=1;entryX=0;entryY=0.5;entryDx=0;entryDy=0;entryPerimeter=0;" parent="1" source="csXmqMj6bJsYxj3TkgzI-9" target="csXmqMj6bJsYxj3TkgzI-3" edge="1">
          <mxGeometry relative="1" as="geometry" />
        </mxCell>
        <mxCell id="csXmqMj6bJsYxj3TkgzI-11" value="Webhook Trigger" style="edgeLabel;html=1;align=center;verticalAlign=middle;resizable=0;points=[];" parent="csXmqMj6bJsYxj3TkgzI-10" vertex="1" connectable="0">
          <mxGeometry x="-0.1493" y="-2" relative="1" as="geometry">
            <mxPoint as="offset" />
          </mxGeometry>
        </mxCell>
        <mxCell id="csXmqMj6bJsYxj3TkgzI-13" style="edgeStyle=orthogonalEdgeStyle;rounded=0;orthogonalLoop=1;jettySize=auto;html=1;entryX=0.892;entryY=1.036;entryDx=0;entryDy=0;entryPerimeter=0;" parent="1" source="csXmqMj6bJsYxj3TkgzI-2" target="ECxJCnwDTBym_X6aiwxF-35" edge="1">
          <mxGeometry relative="1" as="geometry" />
        </mxCell>
        <mxCell id="csXmqMj6bJsYxj3TkgzI-14" value="ECR" style="sketch=0;points=[[0,0,0],[0.25,0,0],[0.5,0,0],[0.75,0,0],[1,0,0],[0,1,0],[0.25,1,0],[0.5,1,0],[0.75,1,0],[1,1,0],[0,0.25,0],[0,0.5,0],[0,0.75,0],[1,0.25,0],[1,0.5,0],[1,0.75,0]];outlineConnect=0;fontColor=#232F3E;fillColor=#ED7100;strokeColor=#ffffff;dashed=0;verticalLabelPosition=bottom;verticalAlign=top;align=center;html=1;fontSize=12;fontStyle=0;aspect=fixed;shape=mxgraph.aws4.resourceIcon;resIcon=mxgraph.aws4.ecr;" parent="1" vertex="1">
          <mxGeometry x="700" y="830" width="50" height="50" as="geometry" />
        </mxCell>
        <mxCell id="csXmqMj6bJsYxj3TkgzI-17" style="edgeStyle=orthogonalEdgeStyle;rounded=0;orthogonalLoop=1;jettySize=auto;html=1;entryX=0.821;entryY=0.979;entryDx=0;entryDy=0;entryPerimeter=0;" parent="1" source="csXmqMj6bJsYxj3TkgzI-14" target="ECxJCnwDTBym_X6aiwxF-35" edge="1">
          <mxGeometry relative="1" as="geometry">
            <Array as="points">
              <mxPoint x="740" y="699" />
              <mxPoint x="772" y="699" />
            </Array>
          </mxGeometry>
        </mxCell>
        <mxCell id="csXmqMj6bJsYxj3TkgzI-18" value="Pull Docker&lt;div&gt;images&lt;/div&gt;" style="edgeLabel;html=1;align=center;verticalAlign=middle;resizable=0;points=[];" parent="csXmqMj6bJsYxj3TkgzI-17" vertex="1" connectable="0">
          <mxGeometry x="-0.1433" y="-1" relative="1" as="geometry">
            <mxPoint as="offset" />
          </mxGeometry>
        </mxCell>
        <mxCell id="csXmqMj6bJsYxj3TkgzI-21" style="edgeStyle=orthogonalEdgeStyle;rounded=0;orthogonalLoop=1;jettySize=auto;html=1;" parent="1" source="csXmqMj6bJsYxj3TkgzI-20" target="csXmqMj6bJsYxj3TkgzI-9" edge="1">
          <mxGeometry relative="1" as="geometry" />
        </mxCell>
        <mxCell id="csXmqMj6bJsYxj3TkgzI-22" value="Push Code" style="edgeLabel;html=1;align=center;verticalAlign=middle;resizable=0;points=[];" parent="csXmqMj6bJsYxj3TkgzI-21" vertex="1" connectable="0">
          <mxGeometry x="-0.0644" y="3" relative="1" as="geometry">
            <mxPoint as="offset" />
          </mxGeometry>
        </mxCell>
        <mxCell id="csXmqMj6bJsYxj3TkgzI-20" value="Developer" style="verticalLabelPosition=bottom;html=1;verticalAlign=top;align=center;strokeColor=none;fillColor=#00BEF2;shape=mxgraph.azure.unidentified_code_object;" parent="1" vertex="1">
          <mxGeometry x="-150" y="1077.5" width="80" height="60" as="geometry" />
        </mxCell>
        <mxCell id="csXmqMj6bJsYxj3TkgzI-28" value="Application User" style="sketch=0;outlineConnect=0;fontColor=#232F3E;gradientColor=none;fillColor=#232F3D;strokeColor=none;dashed=0;verticalLabelPosition=bottom;verticalAlign=top;align=center;html=1;fontSize=12;fontStyle=0;aspect=fixed;pointerEvents=1;shape=mxgraph.aws4.user;" parent="1" vertex="1">
          <mxGeometry x="-150" y="841" width="59" height="59" as="geometry" />
        </mxCell>
        <mxCell id="csXmqMj6bJsYxj3TkgzI-30" style="edgeStyle=orthogonalEdgeStyle;rounded=0;orthogonalLoop=1;jettySize=auto;html=1;entryX=0;entryY=0.75;entryDx=0;entryDy=0;entryPerimeter=0;" parent="1" source="csXmqMj6bJsYxj3TkgzI-28" target="csXmqMj6bJsYxj3TkgzI-23" edge="1">
          <mxGeometry relative="1" as="geometry" />
        </mxCell>
        <mxCell id="csXmqMj6bJsYxj3TkgzI-31" value="Hit the app URL" style="edgeLabel;html=1;align=center;verticalAlign=middle;resizable=0;points=[];" parent="csXmqMj6bJsYxj3TkgzI-30" vertex="1" connectable="0">
          <mxGeometry x="-0.2058" y="-2" relative="1" as="geometry">
            <mxPoint y="1" as="offset" />
          </mxGeometry>
        </mxCell>
        <mxCell id="csXmqMj6bJsYxj3TkgzI-36" value="IAM Role" style="sketch=0;outlineConnect=0;fontColor=#232F3E;gradientColor=none;fillColor=#DD344C;strokeColor=none;dashed=0;verticalLabelPosition=bottom;verticalAlign=top;align=center;html=1;fontSize=12;fontStyle=0;aspect=fixed;pointerEvents=1;shape=mxgraph.aws4.role;" parent="1" vertex="1">
          <mxGeometry x="751" y="1090" width="35.46" height="20" as="geometry" />
        </mxCell>
        <mxCell id="csXmqMj6bJsYxj3TkgzI-39" value="IAM Role" style="sketch=0;outlineConnect=0;fontColor=#232F3E;gradientColor=none;fillColor=#DD344C;strokeColor=none;dashed=0;verticalLabelPosition=bottom;verticalAlign=top;align=center;html=1;fontSize=12;fontStyle=0;aspect=fixed;pointerEvents=1;shape=mxgraph.aws4.role;" parent="1" vertex="1">
          <mxGeometry x="850" y="944" width="31.91" height="18" as="geometry" />
        </mxCell>
        <mxCell id="csXmqMj6bJsYxj3TkgzI-40" value="IAM Role" style="sketch=0;outlineConnect=0;fontColor=#232F3E;gradientColor=none;fillColor=#DD344C;strokeColor=none;dashed=0;verticalLabelPosition=bottom;verticalAlign=top;align=center;html=1;fontSize=12;fontStyle=0;aspect=fixed;pointerEvents=1;shape=mxgraph.aws4.role;" parent="1" vertex="1">
          <mxGeometry x="684.05" y="944" width="31.91" height="18" as="geometry" />
        </mxCell>
        <mxCell id="rpKC9vQCsp7XYxEn10gR-2" style="edgeStyle=orthogonalEdgeStyle;rounded=0;orthogonalLoop=1;jettySize=auto;html=1;exitX=0.8;exitY=0.5;exitDx=0;exitDy=0;exitPerimeter=0;" edge="1" parent="1" source="rpKC9vQCsp7XYxEn10gR-1" target="csXmqMj6bJsYxj3TkgzI-24">
          <mxGeometry relative="1" as="geometry" />
        </mxCell>
        <mxCell id="rpKC9vQCsp7XYxEn10gR-1" value="Developer" style="verticalLabelPosition=bottom;html=1;verticalAlign=top;align=center;strokeColor=none;fillColor=#00BEF2;shape=mxgraph.azure.unidentified_code_object;" vertex="1" parent="1">
          <mxGeometry x="-160" y="962" width="80" height="60" as="geometry" />
        </mxCell>
        <mxCell id="rpKC9vQCsp7XYxEn10gR-3" value="Push frontend code&amp;nbsp;&lt;div&gt;(manual deployment of frontend code)&lt;/div&gt;" style="text;html=1;align=center;verticalAlign=middle;resizable=0;points=[];autosize=1;strokeColor=none;fillColor=none;" vertex="1" parent="1">
          <mxGeometry x="-70" y="962" width="230" height="40" as="geometry" />
        </mxCell>
      </root>
    </mxGraphModel>
  </diagram>
</mxfile>
